<mxfile host="app.diagrams.net" agent="Mozilla/5.0 (Windows NT 10.0; Win64; x64) AppleWebKit/537.36 (KHTML, like Gecko) Chrome/127.0.0.0 Safari/537.36 Edg/127.0.0.0" version="24.7.6">
  <diagram id="C5RBs43oDa-KdzZeNtuy" name="Page-1">
    <mxGraphModel dx="1339" dy="793" grid="1" gridSize="10" guides="1" tooltips="1" connect="1" arrows="1" fold="1" page="1" pageScale="1" pageWidth="3936996" pageHeight="3936996" math="0" shadow="0">
      <root>
        <mxCell id="WIyWlLk6GJQsqaUBKTNV-0" />
        <mxCell id="WIyWlLk6GJQsqaUBKTNV-1" parent="WIyWlLk6GJQsqaUBKTNV-0" />
        <mxCell id="se10DsUU-3AiltmF5m8V-0" value="" style="shape=image;verticalLabelPosition=bottom;labelBackgroundColor=default;verticalAlign=top;aspect=fixed;imageAspect=0;image=data:image/png,iVBORw0KGgoAAAANSUhEUgAAAkEAAADRCAIAAABEn/GQAAAgAElEQVR4Ae19PctsOZJm/p/LQDGsseRvuE4b7awxxhhpXat/wJCwVsFlyGagcllYhjKKZqjNHtboXNbY5XY6O11OwcB9YUinGKONunbZOR0RUihCCuno5MfJk5lRXOrV0Uco9EiK50hHilz8Wfx38v8cAUfAEXAEHIHHQWAhKOzPj6O2a+oIOAKOgCPgCJycw3wQOAKOgCPgCDwqAs5hj9pzrrcj4Ag4Ao7Ac3DYl81yvVjAv9U+9Olxs6UY+P/ycFRd/WW/2i4x/2KxXW3edKrKWjx82W+47HqxeuMMoUZdV1MNLvqYgePbZrVd6vZyS0w0ONUDjoAj4AhcBYGn4LD9junq/defPv8MyCjyePftdz/89EsALBEel/rq7/4tpg6gul8Fsgxl338f6uMaVV0NNQYqeoBkgv2r3/0+YZu0DvhrNFKyhxwBR8ARuAYCT8BhbytYUW3evQN2YQ47nU6//PTDp6+/AbLJLOn+n/76V99/9wn+++7DR8rwe+a4FqxU1/r913/A0vg/4kwsBTV++vRJ2/SqGq2KHiGNOCzDVihuoiHSPegIOAKOwKUIdHIY2O7l5sultanyXTJpk1BVTaYzbmHR+/5XH/7w9fucw6C2mp39+fMPn3+Gtdfx8J+BAr/5WhOP0jQ9EId9/PDdJypNKWrNFxVLhepqHPe7ZdwFXa46tzS/7De7uBG6Xq54m5TWl7v98bAimcvdRmyS1uqilSXswe6DWEZbtWuxXi53exSYxcfl7I72cVVqjka38outUF6VkjvGCmT98LZarxfr7ZUHra7DnxwBR+DeCMydw077f8rWSWRz33+Ny53jAaz5X//uu0+ffvtfxnAY404k9/77T7wnyEkyQNnCJzTeTgx2Vlltc11iUakqRZJ//S+DW5r5ZuZivfjqf/0rqGrskS4W/+MfUWKjrojn978WrfsVFjNK/dX//NMveoM0lfqG9nFVKY3GOOXf/e6PqHxZSq62ZS+l8PGwXR6u+86VhHvIEXAEZoNAwWHSWOOBhdyChDdrsJjLzQH38daLBb6DI6OEUxUgh1+lhXltyTRRiUufsNlHj998DZxDYn/7m++Az/4Zv1Tl1s0iD1ENSYMdyDaFhfVcstdEYx8/xO9sAxuGhhpU9d9/oG3J775/D8I/fvjf+DVPqKiCxNmLj7HUt1hq/f63P/3CHPbu269hn/T792Fz9fPPp1Zd1L/v3n1c/M2/fP70iZaz7z78gbZIw34g7Lp++w40DAtW1d5iX1Wl8gK3R/nFN6B8qOvjB+j0MHjefRD7t0PddXIOU+PGHxyBp0Vg8eOPP/I15xMaO95KEo0GI6jjybIQS8XUCoeBlcz3lE71ukS1GDxu/mGxWL/78P/gixWSwVdgzj7/TMTwq+/pAxTZ4jEc9kZ7bihtgMJAkZ8/AzEQ09DHtOzbl0FUsS1lUjDovKQLgfftPU2SA6vGH37CrdD930JBpBzqEdjnpMRATh/+8PlPuFrNCXhNdVG2xeLjb37/A6EADSVMT1/g5KEqGBZb0LCyUbG5dmqn8rBNS6QbXhGOtBZHNZbL3Wbfsb7a79biyKjUy8OOgCPwTAhk67Dwzlt8cogslZqOOTMzYXNYWZak1OJTHSFEn6zeffv7n35Bg7v58B0cm4jGN6eBsCikwjU7e4wE9ht4u+elQlF3FqFsa5bWsumlGlUOa7Fp2KYThyGZqH746d/x22FaGqakP/5fzUPMl1BXgJF4UW1lpsEQv3jhOowVLBslESlSxyif4/zLn/7Phw/f4EIQlf+bH2VVOvzlsFw7gWlM/MkReFoEMg6jdrLxCl/prTXThBx2OuFq4+OH3//xbxfrxa/VwkuYVyazobVC4I9/+PVvRxFYWDvCjl/cQlTjorDaKdVIimZaHnHETTlxzjEJCCGSs/j44b/9G8REInz/9aeMw477sPbCpB9xyzfuQKatv8RhsFOXVRyE48Lu06fvvo57iZwvKFM5DlM2uVt5Gm85zr/8/NNPn39P50gX33ydaZtB5euwDBB/dASeFAGTw6Ct+NasP2ipVZfFYWkrkliQilOY6ZCBNCVwqg6g+Xv37u8Xi/Wvxbcr2vUim8znEvHx///XeN5PkFza+RSRgfn4crSuOHuKxKM4jBrIDEoB2XYz6UR7pFqTEqVMgS+b/5RJw5sD6eugTn337Xf46ahRV1qu5bcLqLFa4EK8H0QGjU0g5ZtoDCjPLwcSZ0sgtOtzBo169O9hCg5/cASeFoGMw5TZUmY9vETzly2bgfhM2mpzWKYzHUKs/DCWy2ygHG33X8ERRPMVnGxx/B5mGb6wfhLKiC89sWBDh9o6rFFXIwkq+te/++9pfwyUEQxRVeTf//FXeKcN8n989x4vusFmaFaXTGrVVeew02n/3VcBoo/vP3yLh0SUhsd//vavEoaUlKlBFMjk1FaeszU4LLWrihCuUP1cYgsfT3MEngWBjMPm3Kx4RK7+8YqWZZHhYn6xdRa/fMn1W0qOBdsgiBMPKWOjrkYSlP/lp894L5rV6NHil59ToR/CRbfAYWHrD8VxUlC0VpfZpFAm1fTD559IV6WhVCW+XbSbLEtIDakU965UKhMoS6U+UKHjYbvYJT9gKs0fHAFH4HkQeCAOuzXo9vqMNsrUkvS2ipytBi2AeClzWy3nL93vOM+/j1xDR+ByBJzDGMMWefTtNLKoSwJnq+EcdgnsXtYRcAQeEgHnMNlt9h4jbfOpHTRZ6Prhs9XItuOur5lLdAQcAUdgVgg4h82qO1wZR8ARcAQcgREIOIeNAMuzOgKOgCPgCMwKAeewWXWHK+MIOAKOgCMwAoE7chgcXtA+GEfoXcl6C5mpKjjq1vSG/mWzXV90pHu/4mvlqVoPOQKOgCPgCNgIOIfZuFixw474gOSUNxNLjB0Ht8OXh/3msIeb34P+OmwhHusIOAKOwGshMAmHsT+OxXqBJj74mWUXDxP/ngs6IjrAbyRuD5ud+KVEZKkF/HaiWG+JyMWayCVxFdylDZGnE+Qsf3SRLiqBzKElGjlvUiQooKM1K0AncoRHKLndbHbB7VPKkE7qxyUvHMHPfzSHxjy0Zcs/qfla88Bb6wg4Ao+JwAQcVtvfK+PphlPyaghmF+16+ZtkYLul26qAfinT6pY98NZuH9ZVsAEIRj88YoG3XfgJYIyk/UMoRSaeU+H3RxIzKT5jhXhlJkoZSlnrMGx74B4ks9Ue/VgmigKv84xSWL5BTo1h9A6MMFogkz7OYUa/eJQj4AjMGoEJOIyMJvjN094uSr7BnMJAA3I2h5VlCeVavOoDIC2gpbcdcFJcPCWKAr+IgcNEZPrWJbgqikL5InOoD3PiCgzXdlnTlFL0oL6HofNJ3lUMTSOuO9LC6wiIAaomSmINJ7yNWCAbmniUI+AIOAIPgMAEHEYoMJPlRlmAZJlX0zonB/miNAS7OCzsBIYlFNDVbv+XkmL/MLJU4i1apeULMrl0Oyk+I71CFZmSvY8mh8GvlMF3s+1qtVtu3jZLXHKZKKUFmazRAlmme9gRcAQcgcdBYDIOA0jQKPPBu9KYljGSljA17JJRmOmQ8TYlcGoIHJZAWoFy4gaaSVcciYGwK8iR9KGLP4AFasQfOA6aAYfx17JcjeFnZCaxl8h0tV0ud/vjYbnchh8HMDkMGV1+PMMa6xAhc3NzhtXzHI6AI+AI3BuBCTgM1kbxJ6b0diJvdokzHYXNJebDrcgr/Z4LbiHCwgvs9X4Xj2/goio/0AGrNDricaD89LseFLk6yEMcgecW/AEM+pZ4jrYTz6EHhijtxCKegJggcpvD0o9kIv5ErHUOwx3Uc89V3nsge/2OgCPwkghMwGEvietDNjp+GnxI5V1pR8AReEUEnMNesdeNNuO25zkrRUOWRzkCjoAjMBECzmETAe3VOAKOgCPgCFwdAeewq0PqAh0BR8ARcAQmQmB+HNY4czARJl8Oy7u4q3jbDTny0ADcS0+txRlP9+/iM5T2ImMQ8C4eg5bIO9YIiKKvGnwFDtuv9HHIdl+H84oqk7p6rFIufMiucKVDksNyLT3LUl0X5spizZhRMvE+BZ1L5asQuYHjPPoSfFOJIvG6fTRuzBTKPFbEdaHDtuddfDkgl/TI2AHG+aXnUjOybNcoPS3kxxiBsvoXjJkfh12/E8aMqv1OHy6HgXtDV7wZh+FZfDb1LSRyPWt5R/FNTUgWP0bm26rbf/GYblIa3aKPzlZGaTb7h1tAd6NGX94j3RLMQWtGGm3trKWF/NvqgkulhkpPHjUJh+FLGV0SSz4OjUjoV8wm38eVf+BUHDwFhltnDRdO4nqVuCJV71Nz9ODlK3lvDVS33OaCcSedwsXkcIUri8yubfGlb1Sr7y3M0FM2FRFJACnoLeVr18uk/i2ZVUDhHrbyImx2MRUvJ39qQaOLqXDRR1WVzIQEXrydvlqv4Doidh3XnrIJx8t78pdCnaw706yrI3J/WqxiNhE+bk6LRfi3OYoMMXIf41bL0z5mXm5irP33IuhmOYvtdoLFkIblVIzuUK4YtBBvRmYVyeEBI2fobbSKfGkEoiuGrEZ/PJ1OE3DYcbONJj1BbkZScjHUQim57j5utjwca/m5ssEMnLPcjDZfl2jikrniRQkHtPdClg0DHAc1jtzc+wZng4vGu7f0aIbKPKJ2VaKMt5RHlQKgoGewxMAhmoJQdilTVUkPND8jpy/0T8WZPZJF9nex2UeGSrUo7hmRAemTbNCX4M9LpJL5KwEDR2BMeCr/uAfBWycOH0/L5YmZKwg8npYW260WJ6au1eLE3JarcSF085zFeSPjczbAgrtsSKX3uuBgPLwZ49CFadocyVF2+pvVkhJ0qI18McGdwzR88mkCDguDIDOGNDKySNTMHATSoqkXKB5qslU6bArUWcJTMXRCvKTPMORzW5W/g8VXPhUP3ACDl9/QBGFEhcgTcXyy/5Z6pvdh5nYsWvIN5swMrc1hZVnSphZv6Fp5ezV7REemBumVrVEJRWV9VM1XJAhbltKkMiIMTWcblzgsgzOJOTPEvAWOy9KabLOERVhagYH3trQygyVaJLkWb5U6nQ2dPbWxAgFaqnCaWZzq0yGtkt4blC8f5qA1I7V8etK1WDlEXA35HiMgxLx2cAoOI4TD64xeX1uRxiA4HpbKTJivxtWONARW8pbcYGa0aMBgI70gixk6OOyMdRjpyYafUS75xlJ+nhx2nX05swdlpDk8ZCSHJdtx5LXWXkqlxFuSwygLMRkR6HGT1ltSwDgOkyXPCc9sFteakLoMcsyCw2qqdhqiWvHXip+OwwBXk3vySD3UqBTb5NA7sNWjWK3Va9L0tPLRT4jlVRklLBowHeziIgytDbELWmUzkmvB3+f8wo92AJxC1fREjmTzX6paxtzEsTIpXnl7LboYcmeRo7rYhgmcYXb4XMZfAsg26aQyHE4DKfUh/IRc/1Cs6JlH79WKKn0bi/kSde1hHVZuFV7OYX3QRYXKqc2gxSxfNst8yI7q4gR+lIh/R+ipVYJ5EL9xyHDl01dlJCtdSCH6Rb8yYURMaQTcH3cdvgk4DD8t5McaBiP5owzaZN7A0cY5bOxwZKWd4T2x4ysrWD36gZWKKIw2aSCsuuJOE81XzIla4gmBoCg3frnaBcfzsTrjsEZMUn9zPa1NLiqA5ha0Cvu2tvKMstSTfssmtEhu++YylWryoZj53HSUmuMhI/WO8VAXy0pTuHfmC62CnZX2LoVFuzd8QOAGHHY60WILdg43cU2GdBXOdMQ9Q/wxiLSd2PUNLMHTCnVBJ3BjPhCHrWDgh47j8XV+F9uzeLSerJIc3ZHMEJFi0EKsGWkCaOtpZq1EWkYAnY93v7ZXBD9n9AQc9mDA9d27uk2jcmZq1XJPPVt6zSot/DjcrHR6EGUeBbpH0bO7220j4P64qwA+DYfJV8KwcuCTE9XW2wn38n8xdhP8XnraqM0tln4KZ0ZejPlYPAdWq7SESpHlzuDU0N4PunGz+FH0HNN/lhFwf9xNBJ+Gw5qt9ERHwBFwBByBZ0TAOewZe9Xb5Ag4Ao7AayAwPw6zzxxM2RvX3qPDj7zqq/GI1lh7C63i11a+VddV0+7f71dtjgubGwI+wM7skbEm6Mxqzi72ChyWzpX1wGSdlahdReyRF84rag4rr23VRdnfeO38lvJlzjG1l6XtmFEyxSk1Pm+dmxjOoy9t27XXYi/ruJrU8+PHDUVdzyVltaQHeLpBx+UD7HIULumRscOb8ycHCXDFPTjnk5Flu0bpaSE/xgSV1d86Zn4cdv0Wj+nC3JcujJIb+PwdZfH/cvWsehtMoZUrrxLFw7jaRcFGcIxMfb20IbS4NNbMqxJv1HGqjvEPY4ZiLv2SsrmsGT/Ps+NMwC7vkW4J5pQxIw1NO2tpId9rgozabx41CYfhGxDd5Uq3jIxIAJEuU4mzWeqoUiourqE0bk3whR6qffCkotlVdOGDawGF+AGtLD5CewpHwKmRvJpQ7UnXtsJFY2q/XrTBNdqOW2sW1cn2o86V2i3lsdlBbZDDV7RSowiHiszq2C2u2pj9TsXL6ZdqE51g15V1nJ2pHpvA04tFGkuxdtCQvQOn8SlAosgkjS47ssyKAim/uLLGFcXa4YZ1GNtiVLobYsIkdoc5wNJAUrPwNoal1sl8yzBkEMOGu7h2O62YR0YlcngAJkOjrjplShMEN/Pu8juLeTMn4DDTMagZScqVZivGsxWFRbQkBQ7nzcPnmsAyc7nza7ybQJQYX9F/AI0+UlEvSiQZhDp1BogUMVZ+dwSMyPX3u9FxZX83YmDy5xM+drXwEkvvMCFn8jhTG969Q7FSe1QpVSRaAAPQeOW40hVs4bYxub9yN8RtyyN6xw5m48EYYEQq/JpCvrPNSLsGiM1qqWVsT5nCNr4Sh9mOQakb4ouShNVEXBov7cEB3mrzdYsU192FQCQVqlB7xNTVR2jAdnNky4EcJrgt6YBN1YNdMBbly9+XojUKUnp8gJbKE60CQAO1069QZMpLtUE9i55TI4sWpaQ8VHl/NPtdR6YG2evVvKaT6rgitREhrAnn0ls3kRukhilcGd4pA0u1AlbtyhIJOQA8L8USh2WdadUyKs7ksOhPxN0Qj8IyZRb9SO+x4rUpDjDIbU4ZMzLJTiFdS4o3Q7Up02OCTIE3j5xgHRbaQLM6e7e1Ig3E5+XzF/3r7Tfb1Yp+OYqM++UclpaZRbeX/FRkqRIwG36eHyXfWMrPk8MaIJWQnB9jDEJYKjOEyU2izCnDUHcxvPMMFQXNbDKSw5LtOPJGLhytH3mhBrgb4kpHDkWnLoOc9gCDFJOuzEirRl2LlaMjrscEdYi5QZbpOAyUr+2BKMNUIH4jb6EGmi1fuik7WKbtcrnbwyDaRoeHFg1QGUkGQUqZGV+nay/PpQ/QpA2HWsrD2jH7oKXqKvWR25uYGopTWNjyaotYsTxQmXtFv0O5LBK+YSjFc9kdz31eYg1HwND0uOJPYamhDEdN1JiXlBMzWH+N2hUUXFESiCv5m67DopPG1SK6cBSquxtiBqNvgGF27kd8SoOKtpriYLsChyVRrOa4QGmCujxVjqvkvNwTcJj8dspQDkayyUXzy7slzHZkSymeIysYhNfhjk+afacnkG9gG5SUIIOO4dy+qo0etafHm4e8nZq0zBU1T5oYbc2/u6ra1XZiXrupfDq6646AA9oJUTmSGVo2SebwBhmpk8vXANWjQkLIycIVtYuedDfEhAzvrMo+4sjbG5Yu4y76N3lGdjfEag50PkzAYZ2azCVb3xWrCbXNmalV9eyUbyl7r7Sn8xJ7LyCnrvdROu5R9OzuP9sEzcUN8dNwmH6vofXZwKturQtn5epi7Db0rJSvIXy3+Pt5ib1bk1sVs6NhDrgb4hyvcYblfgNsnJ55K1vPlgmakxvip+GwVid4miPgCDgCjsBTIuAc9pTd6o1yBBwBR+AlEHAO6+zme+3RWQv5lsr30rOlU1eafaykq6hncgTugcDYuXkPHV+gzgflMD6syEfC4MyX5aqq1ofylFctT4q3zkrULgOmUpUQnWaET3ZCezMSBdgfVG3Zlp5lTjhdx2e2yuSzYkbJ5J6KjieC5wt5bp7zCJBGa3Z2H9VqGtXMmpAs/uoyTejMyEwTfuycHWa2URVxjYMBs67BUu0Mo2RaY2nM3Gyr4qlnI/CgHEbtNYegGVni05kNC+a+dGGWXuoI2Lg0Fk5elzZ7xNn6/HB/2XB58ctMPS9yjCHWdzmb9Y3pJiXoGn2kBNLDmGYaxc2oW8hU5+9FrZ14Xp6tU4JQbSB4dYE1iEo9WmOpd26WUj3mSgjMisNgmLJXU743FW5h4VFDbaLNYW1GKrT4Sk1w0jN0fNEcpnTRJ+kDz9vNJnpg5QRRmVr6jOGwvltr7vNX9TJfxuKuyJPbz6Ljmq6NYQGd+3qWnQty+AJjWm03ZZqa3Xl2FHgEDjAmLKhfTsN0cG6gRwRIZARk1dJxreXaWNYrw8I5Ms73mkwT+tZYKpdis3EkWGvLk8XPjcN4c4kdEHAgv7tuzRNz8phdpsa3mSNGlrve1nsZcRo5I2IThoFAXThp0hqL88Rq4K8ZCQmlDrIYhcs8tRf8Mp7MBpnamCqVAeWDIQZTlN4vWI1YiiOsAIoUt03VjqbZI1mkdJuZJWX1WX2UZWk91ppTxk8EHY72ecwOaDENZKSldAVbvqRlvTOq46Qc7qRMIMSLUQlhpEaZLYUhp/GqmjJwNVagPZaKeeccZoF4u7i5cRgbeRg3MCj1vlMcqQSIOQTNyBLAzmwN/tD749Lig9JgnqENaepo86fyR/XMSEjscbhZzCWxgGVYsSatCUShIc5ej6UyyVqUZUn5Wjylqv+f72uK+IIu/8H/TWMn69J9JFMGwqmm2UAnR+w9Zgf0ML9/MIcxPFGlAKzUNowvUbzVcTjuytckLRBr0daAKpbZOCzeg1W/cwYVW3mojaWeuVkR6dHXQGDOHIYDfb4cpuGXFv8mHLZ70xUWTyWHURY2x/wiWvLN43AYb8sV7b9BxKygkwY3/rbLdLND0gBrwgE6USWZSSYhh43sOGKy9AZobE7y2kv2vKyXwxyQOfv3bLJS2WNt3mXZ/PFWCMyVw8DM4isemJE4N2QYADGHphlZwifnZJkqY1q+dFM+wWG4/MIpi5FB+7SUwUIivykkReIe43Z5+KKiyoeWnkklKFcyVhkjj35g6ov5/GV8ZwOdGNh3mB1pvsBATnuJcR3GKgXghLYQA7uO2TqfEa4GhtwlV9ZhYsLFk7+WD2XSKtqWqhJDCTN2hjuk+pOkz43Dss0KRBmmB8XzgEvfhyFJfKmJOTmy2k/hRS/3r2vlLz/blrmSONA1zmzasw/ax8jUHmwVaW9GhmrMQyWlCn95L9U/96xkxtqxHNohqD182TI5TFxWgA/3/CItxMoPY7lMQ0GKKvYSx/Qm8SkhyhpVq7ISulyyijbK3gS7F4/tTA2dREl0ZtL0trNDtJudC5sqyUgxDXs7ThbnFkE/phkWNxQsDkvZlgfWM5BoMA6xuCnTGjGtOGtugr/E9WjGbtXiaQ0E5sZhYnI2tJ48afjelbmuuoqeOTO1hA7r2Sr9ImkP6pI1W9m8SGfNu5n23JyLM9x5Y3c17W7OYauwCOEF1mKxW1mR+8re4CVNle90UQHxFjZG9JD/i1tx2Njd9iE9x7T5+fLezyXr5VhencOuODvOaN19az9D4bKINTfn5Ay31PgpY27OYU+JmjfKEXAEHAFHYA4IOIfNoRdcB0fAEXAEHIFzEHhKDnuB/TTculSfvM/p/cEy1m5Jq9DDIm8famk1de5p923RfWvv75tH0bO3RWMnbK/cOeebgMPwcLI+rHdTRKxzDbX7iYOK4BjH80xnnTaBQ2OjmQZOgA0dubuIw0qt6s20v1rbuFnIlznL2ss8Y2NGyeQBKS6g57aM85zV7UH9s0fd2OZb+fMWWXnOjOv4Mtdbe4eoM5XsK9arZ580lavdtKsMMFVfeBgzYa3yjxc3AYcRKO0evR5wk/nn7VJ5lG2NEns4LOY9629Fq8qxFOv0sFVtjryVB+Iqtdeyd8WPkanvBTfFnz1owUJd6hW6qdldE8+GpdT6iqJK4feN6WlaT57RreidsKMFz7TA/TgM34Doxka8SgE9argQFTnTjaYKnmb/oXEWVyylsWbCgEjLaW+8RaJeyPmyjFpmCUVDk9i2QkC89tMjLE7TKo20DHdYGuuwVMsZKuWnweQFLwmLhLfvzc5AXqDEzuzi8VA8riquWE3iNhdaVdxOa7wRlyYm4RcHrURKhak/B7OpMuFB1svh4dkRO7PSojRw+GZgRSZeSdZzM/MXpYaeboJZu1GRHB1qcmhx9SdGhq5/kUpGRSBBtH0eKFGzZBMwRugZR85wi3KrWE7Yp3bheC8OS9f+cXiRJUcDQWff0xV9kXP4DbrcDrbeiKWxVhwWaYYjaaTJ/JHSAvfgROTZE68MU7G05hANS5GQiSVjQMhscBgK54JCQ1E8+VEoVNIKsKZSGRkJ4RLVPIeVh/k7y1zG08SlJsdU2UDRHYBkNEJCbiwlosogipQcGgDDnIU1gdgscpTj2kvWYbJeDotBlGZHdDpVtjZX3pxHNZlMUbJ2hosjjVpjVJbHrKhEOJbu+iur4LBZ0QOhFEGGOUFhs0VmbzJqxYR1DmNsLgjwIEMZmo3ifXuZh8Pt3so0KjovpOsvE6Z9NCOpuEwKP7XJt8zYenJAqgSRaDUFJyHtSVO62pNHjChTmGwpS4XPV+k8Dtsejqr+4qFEPr1SskXEUiVQmDO+dgbJsoEJkLIsZa/FF2oa6zDKw+NNFtGRqUHUe9HcyBIqrEedSmo/yHo5zAFl+hEni9Z7OYw7J8o3m6kmbMzZakSWRxUTV2UAACAASURBVD7Wwi1xVpopx4wMzjuMl59ZoaRAZm+QZovaVvG13BDfaR02oreSc5/M6Y81rEtLauUy7aMZSaVl0ngOWy63as8wWeSkG+6/zJnD3OPwOY5rUwePC9XMVsE3USwxmfCQq3iOcol3J1NOrDQt8qJ0eu2Jw7NYnopsKRilhRj5WAunwn0hU44ZGeTNHaWrWcU+M9iH8vxz3YnD4F0vvsamsDX+zBlVxbXl91YU4td2eufERZIkqoxmZFLccwvap5wkKk10rC5URJ8IouWASPF1DjOigcEMQiWhcR48X6X4cSBb98R2RSVFhaVXU5EYgy3ksfm8EsUGqtrLGLlYlIBQOAO53qKonPxbfA+jRDn2OHsWCbs6SnHO2B9APw5lA7SA9JadxoVaMWSKYel8pug8eSpVKPNw2GomAE9DQ49lrbd4YmmNiohoox0QhcHz52L9cigByBGNFJZIxrDdmxHBcsJ2+QiNxR/t7wQchvu5tKOW/PPS8bRsTyb2EICYwjiNee8t9nEN6PJ7ppWTJiI452VvtpIVEjMh34T9QKG90EkYfZE5bFsEDovflKMdx7pik8JUZZiWq51wsFtqL2pBxYICvSqhQM4s9Iz6iGZiXuOwRqkU9Jh7HDZx0ZF91oQHiHBcm2aEmB08auRSX0amaxrc5zhqaB6ZMuNo1bvgrNLqTZbSrYMns3ZZRIaTi161iHxRlK5jFa0J+8xuiCfgsHKUj4l5W8m7UpXfUFAC+24pqSL+UEUgZ6ZqRlw6rbeboZ+IaQl4hbQ7eRweP4/u2hmOUhP+Rm/aE/aZ3RDPnsOy17qh/QXs+Yf1FqHGbb7egnXSpTtZqoKOh7Eb68+BfAcwZ2W5q8dhvTzqmkdnNfLiQo5SB4S13rQm7LO7IZ4/h3V0qGdxBBwBR8AReEkEnMNestu90Y6AI+AIPAUC3RyGn3SHDlQ8BSTeCEfAEXAEHIEHQaDksPC5EE7uya8vNoelbzbieB42HU5BxWN4VSzqxbMiq8VpEf/tMe24sWMo9XQ8LRcnCsuyQUtMZYFJdRm/PLVv9UqxPSqBwiRznzRfRCWpvZtlzIPP+5XKGYpn0PijI+AIOAKvi0DBYcBV8ME35zALIvywWPk63MFhreKyutXilGiGEvbJ1jM3HDen5fK03GAOzWGB2KRQOAR8WqxEFBbJKxLpMjhKJZK52ZxWxFiiXlYehB9Py9VpvzptMvIU+aUOHnYEHAFH4OURUBzGt6b4qhCaX7pYCrdFMgsPJJT5b+FbJHAJhddhab0ldyON4mV/gJWXTIM5NkvFapsl2H3gMOaJ8Ry2X0X+K5XQMaNUWm1Oqw3w5Wp/2ixxaSg5Seh53EAeaoWqUOZXCf7gCDgCjsCLI6A4DLCIN7CSqwBCCMkpcZi+MBmYTO43pnUYEFigLhZiFje7wqSWsKCJBfarZP2JCWp7iWqJo7mBeRE29BZpnRcrSX/7VSLFNqvTZgXsVXKYpMOQeoTVpFqJaT2THh5yBBwBR+DVEVj8+OOPf47/wX5W+AyWfMsEhJh+BGLZQgqXcXFrkTksoyuxmMuKC8Ei2E8YvIJZLU9Hsb7JCC/J1txAi7mQWhJJKgbbfWHHUkRmtRB70cYgE1XisPhtL33iEjUqTco9T1GpBx0BR8AReG0E1Dpss2SXUBSIhFRxppeRUJ3DeFNRgZ0VV2n8wATAMSdc0MgVldxLRGc3sH0nz3T0fA9TzCQYRdZL4X6Vso9bgZw0dyaZTGwLzZFW/lIrj3EEHAFH4PUQUByG9p/2/bQzkz4OIw/z4hMaURd+DJNHHCPKXRxGu4JpExMLA4vEDTdmFF6HQZHlaA6DIx6LeJ6iyWH9KmUrqgaHqZwZaWWPET7/6wg4Ao7AyyOQcVjcQoSdQ16EpRMZdNaDCaUkIYghl6LScS3uQ8ZzIiwWvUhlR0Ls/sCNQT4KT4uqdO5ckBlv8VEq5cx2+aAKLZDbQzQWKopiL1FJMRMvH0tOEjufVJ3Sucxv6+SxjoAj4Ai8GgIZh71a8729joAj4Ag4Ag+MgHNYo/P0ZWRan6VFW6OgJzkCjoAj4AhMgYBz2BQoex2OgCPgCDgCt0DAOewWqLpMR8ARcAQcgSkQeEoOe9hfscLDL9KVyRRDoFWH9XNErfwPizz6orEOz7ZaO+u0+7bovrX3d8yj6NnborETtlfunPNNwGHswWqiT0nW7zjvV/YVtQm6RrgpGaztIg4rK8IJisdEBfTqlCnHcyct0nlUVNf+WVi7JRbyZc5SzzLP2JhRMq225raM8zBCY1XCiyp3G3WnU96iM/SvFdmvcq9zRc7e2jtEFbKvGdGr5xl1tpt2lQFmaTVmwlrlHy9uAg4jUNo9ej3g9ru1ep2GsbI87DeHPTgMSQf7r1fjgKRR5nVAVjO5UhHyommJxdWIt1WABoSo3ys4nd5W6y7YcuRrylb0rGXvih8jk9s6LPnsQXv3UTfctgtynA1LWecVRZXC7xvT07SePKNb0TthRwueaYH7cRi+AeEigW0m9OjmsKTIdHNM5FwUToYzXM3+o/tpitroNVVXT3e0w/22zRfyvLWEi27rxXK3QicmQAYgbrvZ7MKNtyBXaUn7gXxbLuRMTcq0PoXX5nzNhO4rSUn2OQlFRV1Ye6uiKoehkEIlQWxRyb43OwN56WaspSdostwcgD7hHzKmVJv9lo1te2yB/Hs8LHWjG2/EpYlJSOvhJGsIYWvUGdmsKFkvh4dnR2xXpUVi1MR5VJGJVzepN1IzVXHzpYiaYtZuVCRHB3e7hUYtjpEh3wykklERlBfKzwMlapRsAsYIPSPywy2KvRmBKifs8bBdbA/KC2vM/Ph/78VhwqUwdJuw+fTO/2WzDPswIufwG3S5HWy/ERuWGk1O+BaF0wudyG/BpEZ7CqVWb8hhlqnl0QDFeekyZokQKwqSLJVovuY/FwAFKhVlMqPLlcQWrHZVSImqKoMPZZ6KPoaeNHGTVxfoBam24DCj46pq50qiyPA6gQY69DbmK6wJxGaRx82WbXeWlNVlj7osU/1RCucw0mc+O46brWyFFMkFKdKcRzWZZTNF8RwWWSmHy9rjnEhTu0SYi/cEZBUcrrXoUVCKel5kFYvJ6BzWM6CG8vAgw4yajfY7WorJPBwWk0eXsmosOi9kyr6HGeYV3x5z4oHIQFpgYWF+RA6Ls1yIUi+W/CVEZLA0VnHScJP/ZYMLawIr8VqmrA6bzHryyyqDwHnfdsMvcSXy6ZUyYkUCSz0xZ3ztDLVKtROHlWVrMln5PFCswygDjzeZX0emBhERRnMjS6hwNupUWvNB1sthDijTT8Qc1xZSqsxPRaLCaR7JPDFsNjMVUbXL+nQ4Sgux8rEW1gKGn0w5ZmR47Zw7Sgpk2BXCOWG2qG0VeybsML6PkuNO67ARvSV3+LQxNDAuLamRyVyyXMphts2tL49MvaSQ23OYWuvgoiO+KmfK9aBay8MWkamx5KHH4TDJ+BlI13ysmS0e/zIDVExMll54IC7PI16xTDkxv1onxVapCRtzxkTrb5ZHPtbClphWnCnHjAxS5o6SArnNYW2rWJuMLTQfN+1OHAZWK74VprA1/swZVcX7y2HZcwCBDCtbVRSHAzzoFF/8B9dhaSmDFgJtAwlna4eP2SKjpr/mMLJMmUpxa18rDwIrFWUyRdVi2wV/cyf9ZqnIhAZyuzzA58HWfy3kE0ogodSzjJHcj6lBNwp3t91S+Px1WFyHW1K74/a79WJwiKa37DSsFCfJmRKrzmeKzpOnUimZh8NhuyHKxb8APDEfdubguUSlbUaoXJFeHcr6XhMlAPkaVvF4yCcs7CWut/iNX8L8HOEJOAxNJf+oC9t2eB3P9mSywR3eFsX740KdbDB7oPyeaWbDrzLh2whvMYia0nyt7CXyd5WgpfhqjOdSuJ3iXAZXZKiU4CDJZeNjRcG+58qDQYjHTEJFmUxUKbyLitMT6TWeO0mRhHFYw9Afal8rqlO1C+VLPZGZCponYwm/Hg7nfBhPIVbimbfdVBEiCw4zx6cZGd8fCCfWqFqVldBnTbiXlodNPMhuzg6pZzR/yLVxcqVfU2eExLdAU6bdTFZp9SZLlW2UKnHtsogMxxVk/L4cxL0oSrRDRDNb9ibPngSd1ZsBPGvCvu0Wa31gu+y4R42ZgMMug0b/CEz8lemWzL5bSi0JA2n1lc1AwUdMzpmp1YabI9+q/FHSwJqod4RpFB8/j6bRq1KLo1QBhqIbvWlPWNgm8XVYE9MbJurXuq7Zf2NvERdxmFhG8KtysQS5IZzjRI/dWL8x8uOUn13uL5vt+m5bOmfMo/sA6Ch14F7rTWvC4sbssxLY6XSa/Tqsoz89iyPgCDgCjsBrIuAc9pr97q12BBwBR+AZEJiKw3D/jT9TPgNy3gZHwBFwBByBeyNQclj4XAinwi75TgPnZsTJLZvD0schPnlzb0C8fkfAEXAEHIGHQaDgMCAbODhxZQ6zAMHvkl2HNKzSHucIOAKOgCPw6ggoDuMbOcXlp7RgCvuBQHWl31t2GCBv0NC9VIjJFlvAYfKKz6v3hbffEXAEHAFHYBwCisOgaLyBlVwFSCetuCUIVISB4JqItw0xMpAcR5I+XJAe9Q09Z7Jxnea5HQFHwBFwBBCBnMPiFmLyLZO8P8T7TMxhYV0V6QqXcXFvMEYGnDMOw1hfh/kgdAQcAUfAEbgEAcVhG/yJLN5IzJdZsh7JSZGunMMkQh52BBwBR8ARuDUCisOED07pzAQ/hmVnFC0OoxUbLs7oG1h+LjGs22KbfB0WkfC/joAj4Ag4AucgkHFY3EIEioq7grlPWIw3OSz8fgcc38CfPyYOS+dBaIXHTOYcdk6PeRlHwBFwBByBiEDGYTHa/zoCjoAj4Ag4ArNHwDls9l3kCjoCjoAj4AhUEHAOqwDj0Y6AI+AIOAKzR8A5bPZd5Ao6Ao6AI+AIVBB4EA7Dc47Z0chKix492n+CayY9aP0UU0u1h+2455tcz9ei1sB79TTnsPTz3tZYYPdbfJrSynW9OOunkPcrcUlhZFVwKPThfy4gXkAc2faLs9s/iWuLtTquzHmL7hglk8dzuPwJKuYWn/NcMuYvGbQlbiNj8haNLN7KPi9z0dL0ZdIehMNu2B/tQUkV9+S5hor73VotNsGaLA/7zWEPZlxcduiubJSB65Y6ccZ7cdjpL27W1l2o5x1XA+gW3TFG5tuqexSdPeYvH7Q19OYQ3wNLT545tOVJdJiAw2SPchgCm8OS3Fclx7/4AqUjK2+FIuciuA6uyDzBPTSSmQhCFR9832S1Y6+L4lFmpXaRM+oZhRR/TYuJN/H0z+CATY9NSssssGUUTwuv1GwNaFFt8H4ZUGDCgIpzt87HzRZv/q0Xy90KvbpgKdXIlldoSybqkysPkdTy0KjGUtSqHRcXy80hYsJMVFZkFo8g9S3FjI6TfYRDpNIdUHuuJzY87w7QSKjakhmVL/4eD8s01yC1MrkgqRjz5jwqqqAI6ro4NSqZ7GhZL4eHJ1dsV6VFArk4DSsyzWaq4nMxFzZ+rxd7Rw6LC4svm2UwUGAhN1/MTuDRTKnaI3EwUGglKKxk8phjIaK4MVdLBbhgUTuZINDZrF1UNPwKXH6AMV9pwQpTkyj5CEpBpCAP/okAEV82i2NMoxkoBAGNxIYWYreP+aHNmaGCnFhEFo/5Iy2lDNgQoaTOGVoUa2d9qwGuPZj7dMseRVkVSVmpOMeWncJJHCjziIo4FwTKeLKOWk8GgXxwx9/hA7SjqRZSS5kiMQZDb5RvPpAhG95UJos8brblPIrS1V9z0KoczQdZL4fNyfXi5qKJ4isl3pHDjClBM82Yp/k0M7mBR7yYluoFCvyHAEcqOpGlaj2v86ji4GArvhOXLTL1rNVSmkLKmX1aAJtFNSUOA+Ob7JP4mZsuA0fUErRnwrAsKdS4esP8YHYThykF0CLL4my7zUhVFlqx2tMCgd5H8LcUoh23sVMSiA+w4w1+tVAyinM9b7vF9oCvCRxVBMqOS8OOxwSWKrvD0lOiBLpphsurL2XmOfi5WIdRih7eIbeOTA2SS30WXAayQVtmqMXIejnMATG140L9Vc1FDcCXi58XhxH8OIXjKi30iBzEECXMDlsJmSeG04JMdK0ioZhTpBdBnUcVb3OYqWchPkSUptDOiS+lZIvJujWsfJ+BM42mFWlzmJVT8eIwh8WGxBZDRfzpJtnxmCz/mrUXBxWghCnHLs4V9HRKLQ8b/kjGjAOLN/W0Vap1ZS0+1cGhizgs7yKWet2AnGsc5oDiMKoY0UqDBSNlfoh4RnNxXdgfWNo0HCb2hMISQg4yGY5Q5tyj8+SpVErm4XBaKkTR9FkhrWTiqialFyGWhilgmkKL0ARRWOaJYVvPQnyI+HJYdpwggClbmhMwZPm2Hoi1XvON+tkOktlF+ZYltTkMLQQCahdHQsplpki07LnypkxD82Cf8trthlsotSs6HrbLg729nZRpdZxoptkdZgdZ3UEtYl4XtcPPTWQrzpSqQudzmFhyK4mjHva79WJwhKeti9QzahsmTi5ZdT7RdJ48lUrKPByeq7nogk4i8kLhCTgsfgSBzfzNqsVhYoHBJIGTJ+2TReuN45v3z+osEu1GdjIgvLvB3Ofha/a6VClu6oTvGtmmipSTwpaeZkUY2XWCgHiC98QiItwkaCq/+ItXUGvPhVVBU4v7eHDSJucbXsFANmMvMamEB3VSce6hsFhWSoahADqo+KA8Qy/8R7O+MmDVbnOYWZFZPMg3DmvImjmcdxySZRy1oe2UmQdE6A6svWAgozuguBArezOXyWrlgYLDGGPsqDCUzEh1oMR4icqrsp6Ph+1iva188eYCPBbcXCSo+qBjDF8qMAWHXR9Q+cswaKXljL5+dWdLHK/n4DUjtG5MUfzCfraKNyuIpkiZ78hVeeTNVLhUcM5MLXmDHdcq/Cppb7vhddgNsBg/DW+gRIfIlp53gq5D67tneUwOyxZnbNLvDmeugH6l7dJz0N2DeBm39w9zJcSzLksLhWIRIPJfELw+h02oPLS79pWrhslgx9UKvkT8l8123bEIuw0WZ0zD2ygyINXW867QDWg8h+QH5bA5QOc6OAKOgCPgCNwZAeewO3eAV+8IOAKOgCNwNgLOYWdDN1VB+6v/VLU/dD0O3dnd92zQjd0ZPhs4Lzg1As5hUyM+ur4bWpN0ftLSKh2O21vJDxDn0J3dSc8H3ZgTOmfD5gWnR8A5bHrM51Njm8NIz54882nRZJr0wNKTZzKF51NRDyw9eUa3qPemxGjBXuCeCDiH3RR9ORU5DAH3dzyEO8MlXTM4dEOwQbpDx/cStYPJcikG964GfYn1YO557oaAc9hNoa9Zk3gLOXkQcAemWUc4dAiIdmyWYVR5dOhq0BVfxZzDKmPogaKdw27aWTVrwtd8UwZyT2Bd1k55UNfkjAf8NiSnFoVM/KQRnUXM3N9x2Quy1RzmgFptOHQaPhMlMzI4SHmZUdfjwVlj6U+zR8A57KZdZBoOMzKoQeY4MhNFyvwQw66FhKdHmSeG0yJPtDHRnqIBkSMLRmkUrYqDJnhDWuZJYUvPTHjjMckRm2NmZBDi0EU0TZTMyFeDrliHRcj87+Mi4Bx2075LayY06LRUalkT0CbnHpm/TCX9ZR4Ow7X/3AsHLM5IDTp2yKu3Gg4sDTNA8Yv9HXc5MHXorB5x6NIIlCMzhvO5ozEsPTi7H0KN0CM+OYfdttfC4sD9HTPzoddE9/0a3blG4wvDMIXFEjZuAtM47bO5PuriFnp830L0rHOJ4Idwnb/o3dYmuPTrIuAcdl08by+t5Rj09rX319DS804OTFsq9Tfs9jlbejp0Tfwb0JWHEkES/G7OoCv9ZpWeeGcEnMPu3AHjq7cdg46Xc+sStp53dWBqq3RrIMbLt/V06DqQtKGzPTjjxqwTWAeqs87iHDbr7nHlHAFHwBFwBBoIOIc1wPEkR8ARcAQcgVkjMBWH4V2lG3w6vdePNo09pHsvPS8efLfquIsVcwFPi8DYyfW0QHjDehCYG4elo1k92ls/nrtfhZ9U7xFwQR77E7Et0NKzzHmLH2UeJZOd/EY3InTQXx3Q5zyDh/LLBnLM1ftoVDNZjXbgFjLbNd4lddyM61NxlExrMIyZXH0qea6nRWAqDusFcMzo3+/0oVgwr8vDfnPYw9Hkrh9N7lXLzGcd1bUy5npaeSDuFkZzjEx9f7mmJcaP6SYl6EZ9NKaZSp/Gwy1kNqq7V9LZXdlQuFNmazD0Tq6GFp70GghMwGHmmzuM8szvrb4TM0xC5iinmzG8aQleCFe75WK9WO5Wy/UCPVuYkXh5GDLQv3CvBMRtN5tdiGe5NDj63hYNPWVTUaY+TQW3yY5QBd3nPKyCVkjL2MKwCAI5vOrEXT/K2ZJZHdfHw1L7HDI7LrR8FS5Ks7TUggwkzsGBrI84viswN+gAdV6SAmLQ/LdVGG5x7DQwKRoEMOx3y83bBges6GG4QJaPRLO4jaQYINTRsiwMnPjaZ9UuaUmGhdcYLF6Taat0Cs6uDHzKyeW+DWsgvnb8BBxGAKtxj9c545xRV+uzbI3OKTfNjdc6NMO7fbT7YANWb2akqgkmYiIMGWZzhflLHZSYSp7aC34ZT1aHWCqmxraAcNAzcBg0TVMQ1b5ayNvFpXoQQ6QS6VtfqhUXb0XhrJuOmy0DkyWJQljVZWvlCEIm1VjCTgTd6SScNfNIBjVXe6Sc5eFYvBzk2odnQYeiY9mh1xDIorhVgdBTJRv9ZdUus6UwTxQl0h4zOgs8GRNWZComl3OYQMeDjMAdOcy0eml6sIqVQDHEQz61vQ6zZPWGRhpsfeKwIhJKw4yML7rEDZIwDEPZ40K01JPMK1TEEKDupYHGnNk7qlQpGZuyLMFRiw9gyT8VU2v2iI5MDVKLWClch1Uf6aT2U6ppPtAxbhyIvpgDSinebBx0EY+70KzoiFIUSE3XIFvFRbEUpDeV4j1HdyVmN2pXtMRFkj+wVA2EOIOOtp9qg6FnctkSPfalEHg+DlPdN4LDTG6QkTaH7d5UheVDyWGUh21S3MEx5GOeh+Aw3tEsAbh+zNygIyss1knhy2IPh0kaSKbfYBFe5Ck87eIqi34gJuNtQ5NvjNoVLbGeHNB1qMxZUv9jbeL0S/CcL4HADDlMuTirdwI4iWHzX8s2gsNwEYavwWQi0SoLDgNRceMuVFe6EDX0aOmpZZaMVcbIox9CT/xyFjdnpRKmBJkhhSvLBdNOZZG0vk2izgl1ebNNgmcFXfiAxMPxLA5LAxB3BLJXF9p+tyLDfJHFE0xmSNGhZMGQu8JhRkX7nbWBDRzWOYtN/TCynFx9viLrEj3lORGYgMPAwKXdkvT5hneDlEEM74niC3MV+PKrb5F1BIcFGsAtPjhtkjiMtWeNqR7jsEahAETketZ3f9AOQXVhx8dmIDTfWk+oRoiVG0a5TFNFiCw4rNZxjIfgdOJT6ujz1mRdFkq0MduJzZs5KXSEfSKYERyWNrCXhw2flLFYRJ86iiCLdqfiVh/L3lQEU844s3bOJvUMH7ap35nC5RdWEWlpVY2zJpf7563C9coJE3DYDeHtu3d1gQJiHZZLyZkpT5fPN9dTVvao4Tt5s31UuJ5ab3tyuX/ep+70cxv32ByGbqe3dA79XASa5aocNnaz/mH9dDThuVbiXb3ZXqsRbTlyGRQXsueuUZo1TVZRU4uLEq3J5f55L4L0mQs/Ooc9c9942xwBR8ARcATaCDiHtfHxVEfAEXAEHIH5IjAVh9mf2C/H5V57dNZ2R6s199KzpVNX2q06Lqt8LJ5ZcX90BByBF0VgbhymzigO9ol1VqJ2ZXJQ2MgM9mdnW4ilZ5kTDt2pE2NlltExo2TygUdxSj/nMM6THdIcpZnVR2PwHFWZZ3YEHIEnRmAqDuuFcAyH5b50wby6z1+N9BgOu7fPX+s4tW6NPzkCjoAjoBGYgMPMN3fgqgl8/kJj+QYNr3LgtGH0xrqQvyySrh+F9VA1J6LYt3QwTLNQCX3EwqXQeFgNA+J+2HLzMj5/SzzdRZ6erv7kCDgCGQITcBjVmC2w0GjT2eLca0DnJlX5BcVah+Hh+EBIyBwgHSMLT75iyYIZ8pxQPN4sDSiWOmTwwtXj3SLzRyUqUtnLeNzIC5XGVNYt0HNQCQCVV5ujhj37kwGPRKNyRzPrOJKbRQo3SwN+hqw+SiAUWDmHJXA85Ag4AgYCd+Qw5ippEGXYUFdEFfYupKlvLbgG5Gs4Fg2wl0K5NkK3IsxhQVGbwwZvp5V6EjMBYzAEqHtULzUy/xgFKTaHlWVJSi0+1cGhwk8HpZg9oiNTg2gxKSmQxcuA6iOR4G5eBRgedAQcgQ4Eno/DVKNHcli2zKoRBldR8hMncaCWhw1/QbFclNxfJRdGmDBPDiuQS40YEaphNUKEZ3UEHIGXQmCGHDb4Fk8d1PKlm7oQLb7YS0RbK2gASY4MMCxZ6OtUVry6DivdkqaSHGrpKWoPv3ipFbDWYbxwDA4eSXliRKbDVDv8kGLGgpyoA+evw/BzXl8lusrsqcSzy4liJsUfHQFH4IUQmIDD9HmF8MIuN6NkOH6rupLPX+hJsUkY2Ag5jM9QpA09FY98INgO5QTtaYAYhzXMkZMfVUCyjF6QU+1SVXGmo2QgZD7cimTfxFCvECs/jHHzZaSlZ8FhtY5j5MT3QV5VrkWkVUsjzsLT3bw2APMkR8AROE3AYTdEue/eVaGAZKYisTciZ6ZWuTP1bIl8ujQbT3fz+nQd7Q1yBK6KwGNz2Jk+f6/AYWO/3Dysn46rjra6MAtPd/Nax8tTHAFHgBB4dA7zfnQEHAFHwBF4XQScw163773ljoAj4Ag8OgJTcZh5wu4K4D3oHp21ddZC40GbQ8fxoAAABIhJREFUGX56+ApHFlvgmBfJBwp4siPgCDwHAnPjMHVGcRBi66xE7f7soLB0tE6dFRwsd14G+wiDLctqZplzxHXmsnAlZpRMPi/pLoMrcHq0I+AIXBuBqTisV+8xHHYLn79XOO7R21TrKLlVNm+mlQfiRvFNTUgWP0amuwzOwPNHR8ARuD0CE3AYv57L5Q1w1SQ+f2F1lbvNBVjBOhuekQwOK3OmFduC/QjL213qrnRZPPZq31LMoDq+8hUr0je52HGi1XbZQOU9SzQK9/4qMqPyxd/iepnZ71SsfFNJtQ1uPGILyltzcBFwvTx8kYq5u0WJhocdgWdEYAIOI9gys4U2i9xK3NTnr3JmwasKDmhvUpk3QlC8njM0axc3zkTONFBEpCSPkKHnq1iZR8hMFWlVQzzRUvJCAv5KpBqCw6A/jEvQtbpUxUQq8ZVA0frJdgGcDQZ3Gazw9AdHwBHoR+COHMbLMmnRZLjditK4U/7sexja8ezdXq5j2L0vlZYmPltayZxKgvT2pD35qmw6CarrcXFbNjMtmBhB1L3kG6vtsoGJw8qyBEctnlLV/4t1GKWaHaojU4OMhbGqIzxkXcxZevDkzB5wBByBZ0Dg+Tgs6xXLjifbnWUulmVmTpsGSBTbY1xjmsVTnSU/pbQYquXRFUHukm+sttvKl2Wp/lp81E78vYjDlA8vIXRcsIbVOCme2xFwBB4IgRly2FV9/pqu3+ljWLY4o06TJh5iwIjn316AmehnU4hIcgOMH4LSDl5enEdH6eKWk1LAXQYnLAZCJZ7uMngAMk92BB4egQk4LH2uh924YPDlbpIMX93nr7UWid+9ovNa+i6HdJW+6kRmQlbTOXkNROdSBF3F4mmXzygeBo1xWMMcTvlRBaVnqkjufLrL4IjxbrFemy8rJtQe6Qg4Ao+GwAQcdkNI+i5O3VCB80XnzNSS9MDNbDXrqmk2nu4y+KoguzBHYH4IPDaHnenz9/7dMPbLzcP66ZgIagtPdxk8EfhejSNwTwQencPuiZ3X7Qg4Ao6AI3BfBJzD7ou/1+4IOAKOgCNwPgLOYedj5yUdAUfAEXAE7otAzmFfNtu1H+W6b5947Y6AI+AIOAJ9COQchqX8BEEfeJ7LEXAEHAFH4K4ImBx2elttD0etl7tP1Xj4kyPgCDgCjsDdEahx2Jru/Sb9nMMSFh5yBBwBR8ARmAUCNoehk6V1/ksWs1DYlXAEHAFHwBFwBAICNof1ukFyGB0BR8ARcAQcgfshUOMw83vYertRPzF4P7W9ZkfAEXAEHAFH4NTNYfBjV+4+1UeMI+AIOAKOwIwQMDnMPFvv7lNn1G2uiiPgCDgCjsDpVKzD7DvO7j7VB4sj4Ag4Ao7A/BAw12HzU9M1cgQcAUfAEXAECgScwwpIPMIRcAQcAUfgQRBwDnuQjnI1HQFHwBFwBAoEnMMKSDzCEXAEHAFH4EEQcA57kI5yNR0BR8ARcAQKBJzDCkg8whFwBBwBR+BBEHAOe5COcjUdAUfAEXAECgScwwpIPMIRcAQcAUfgQRD4D+kebJZeR38fAAAAAElFTkSuQmCC;" vertex="1" parent="WIyWlLk6GJQsqaUBKTNV-1">
          <mxGeometry x="4430" y="3510" width="577" height="209" as="geometry" />
        </mxCell>
      </root>
    </mxGraphModel>
  </diagram>
</mxfile>
